<?xml version="1.0" encoding="UTF-8" standalone="no" ?>
<!DOCTYPE svg PUBLIC "-//W3C//DTD SVG 1.1//EN" "http://www.w3.org/Graphics/SVG/1.1/DTD/svg11.dtd">
<svg xmlns="http://www.w3.org/2000/svg" xmlns:xlink="http://www.w3.org/1999/xlink" version="1.1" width="640" height="480" viewBox="0 0 640 480" xml:space="preserve">
<desc>Created with Fabric.js 3.6.6</desc>
<defs>
</defs>
<g transform="matrix(1 0 0 1 534 386)"  >
<path style="stroke: rgb(0,0,0); stroke-width: 1; stroke-dasharray: none; stroke-linecap: round; stroke-dashoffset: 0; stroke-linejoin: round; stroke-miterlimit: 10; fill: none; fill-rule: nonzero; opacity: 1;"  transform=" translate(-534, -386)" d="M 533.999 386 L 534.001 386" stroke-linecap="round" />
</g>
<g transform="matrix(1 0 0 1 534 386)"  >
<path style="stroke: rgb(0,0,0); stroke-width: 1; stroke-dasharray: none; stroke-linecap: round; stroke-dashoffset: 0; stroke-linejoin: round; stroke-miterlimit: 10; fill: none; fill-rule: nonzero; opacity: 1;"  transform=" translate(-534, -386)" d="M 533.999 386 L 534.001 386" stroke-linecap="round" />
</g>
<g transform="matrix(1 0 0 1 476 342)"  >
<path style="stroke: rgb(0,0,0); stroke-width: 1; stroke-dasharray: none; stroke-linecap: round; stroke-dashoffset: 0; stroke-linejoin: round; stroke-miterlimit: 10; fill: none; fill-rule: nonzero; opacity: 1;"  transform=" translate(-476, -342)" d="M 475.999 342 L 476.001 342" stroke-linecap="round" />
</g>
<g transform="matrix(0.73 0 0 0.73 278.99 246.01)" id="Layer_1"  >
<linearGradient id="SVGID_11" gradientUnits="userSpaceOnUse" gradientTransform="matrix(1 0 0 1 52.09 0)"  x1="329.93174999999997" y1="418.487823023703" x2="58.22324999999999" y2="73.85079229830053">
<stop offset="0%" style="stop-color:rgba(255, 219, 110, 1);"/>
<stop offset="100%" style="stop-color:rgba(255, 188, 94, 1);"/>
</linearGradient>
<path style="stroke: none; stroke-width: 1; stroke-dasharray: none; stroke-linecap: butt; stroke-dashoffset: 0; stroke-linejoin: miter; stroke-miterlimit: 4; fill: url(#SVGID_11); fill-rule: nonzero; opacity: 1;"  transform=" translate(-246.17, -246.17)" d="M 425.516 18.935 c -49.817 28.442 -99.789 14.183 -152.702 -0.913 c -54.481 -15.558 -110.817 -31.663 -167.865 0.913 l -4.962 2.837 v 5.712 V 247.82 v 224.827 H 52.093 v 19.692 h 115.481 v -19.692 h -47.894 V 236.835 c 48.186 -24.804 96.592 -11.12 147.731 3.494 c 31.25 8.913 63.096 18.01 95.337 18.01 c 23.99 0 48.202 -5.038 72.538 -18.933 l 4.962 -2.837 V 10.522 L 425.516 18.935 z M 420.554 225.002 c -48.192 24.808 -96.587 11.01 -147.731 -3.615 c -31.25 -8.913 -63.096 -18.01 -95.337 -18.01 c -19.144 0 -38.433 3.212 -57.808 11.567 V 33.339 c 48.183 -24.808 96.587 -10.981 147.731 3.615 c 49.788 14.221 101.135 28.875 153.144 6.442 V 225.002 z" stroke-linecap="round" />
</g>
</svg>